<svg width="140" height="140" viewBox="0 0 140 140" fill="none"
    xmlns="http://www.w3.org/2000/svg">
    <rect width="140" height="140" fill="#C7ADFF"/>
    <path d="M95.75 24.75V69.7031C95.75 77.1719 93.4062 83.0781 88.7188 87.4219C84.0625 91.7656 77.6875 93.9375 69.5938 93.9375C61.625 93.9375 55.2969 91.8281 50.6094 87.6094C45.9219 83.3906 43.5312 77.5938 43.4375 70.2188V24.75H57.5V69.7969C57.5 74.2656 58.5625 77.5312 60.6875 79.5938C62.8438 81.625 65.8125 82.6406 69.5938 82.6406C77.5 82.6406 81.5156 78.4844 81.6406 70.1719V24.75H95.75Z" fill="white"/>
    <path d="M12.459 118.158C12.3926 119.076 12.0527 119.799 11.4395 120.326C10.8301 120.854 10.0254 121.117 9.02539 121.117C7.93164 121.117 7.07031 120.75 6.44141 120.016C5.81641 119.277 5.50391 118.266 5.50391 116.98V116.459C5.50391 115.639 5.64844 114.916 5.9375 114.291C6.22656 113.666 6.63867 113.188 7.17383 112.855C7.71289 112.52 8.33789 112.352 9.04883 112.352C10.0332 112.352 10.8262 112.615 11.4277 113.143C12.0293 113.67 12.377 114.41 12.4707 115.363H10.7129C10.6699 114.812 10.5156 114.414 10.25 114.168C9.98828 113.918 9.58789 113.793 9.04883 113.793C8.46289 113.793 8.02344 114.004 7.73047 114.426C7.44141 114.844 7.29297 115.494 7.28516 116.377V117.021C7.28516 117.943 7.42383 118.617 7.70117 119.043C7.98242 119.469 8.42383 119.682 9.02539 119.682C9.56836 119.682 9.97266 119.559 10.2383 119.312C10.5078 119.062 10.6621 118.678 10.7012 118.158H12.459ZM17.0645 116.248C16.834 116.217 16.6309 116.201 16.4551 116.201C15.8145 116.201 15.3945 116.418 15.1953 116.852V121H13.502V114.66H15.1016L15.1484 115.416C15.4883 114.834 15.959 114.543 16.5605 114.543C16.748 114.543 16.9238 114.568 17.0879 114.619L17.0645 116.248ZM20.6855 121.117C19.7559 121.117 18.998 120.832 18.4121 120.262C17.8301 119.691 17.5391 118.932 17.5391 117.982V117.818C17.5391 117.182 17.6621 116.613 17.9082 116.113C18.1543 115.609 18.502 115.223 18.9512 114.953C19.4043 114.68 19.9199 114.543 20.498 114.543C21.3652 114.543 22.0469 114.816 22.543 115.363C23.043 115.91 23.293 116.686 23.293 117.689V118.381H19.2559C19.3105 118.795 19.4746 119.127 19.748 119.377C20.0254 119.627 20.375 119.752 20.7969 119.752C21.4492 119.752 21.959 119.516 22.3262 119.043L23.1582 119.975C22.9043 120.334 22.5605 120.615 22.127 120.818C21.6934 121.018 21.2129 121.117 20.6855 121.117ZM20.4922 115.914C20.1562 115.914 19.8828 116.027 19.6719 116.254C19.4648 116.48 19.332 116.805 19.2734 117.227H21.6289V117.092C21.6211 116.717 21.5195 116.428 21.3242 116.225C21.1289 116.018 20.8516 115.914 20.4922 115.914ZM27.9336 121C27.8555 120.848 27.7988 120.658 27.7637 120.432C27.3535 120.889 26.8203 121.117 26.1641 121.117C25.543 121.117 25.0273 120.938 24.6172 120.578C24.2109 120.219 24.0078 119.766 24.0078 119.219C24.0078 118.547 24.2559 118.031 24.752 117.672C25.252 117.312 25.9727 117.131 26.9141 117.127H27.6934V116.764C27.6934 116.471 27.6172 116.236 27.4648 116.061C27.3164 115.885 27.0801 115.797 26.7559 115.797C26.4707 115.797 26.2461 115.865 26.082 116.002C25.9219 116.139 25.8418 116.326 25.8418 116.564H24.1484C24.1484 116.197 24.2617 115.857 24.4883 115.545C24.7148 115.232 25.0352 114.988 25.4492 114.812C25.8633 114.633 26.3281 114.543 26.8438 114.543C27.625 114.543 28.2441 114.74 28.7012 115.135C29.1621 115.525 29.3926 116.076 29.3926 116.787V119.535C29.3965 120.137 29.4805 120.592 29.6445 120.9V121H27.9336ZM26.5332 119.822C26.7832 119.822 27.0137 119.768 27.2246 119.658C27.4355 119.545 27.5918 119.395 27.6934 119.207V118.117H27.0605C26.2129 118.117 25.7617 118.41 25.707 118.996L25.7012 119.096C25.7012 119.307 25.7754 119.48 25.9238 119.617C26.0723 119.754 26.2754 119.822 26.5332 119.822ZM32.7207 113.102V114.66H33.8047V115.902H32.7207V119.066C32.7207 119.301 32.7656 119.469 32.8555 119.57C32.9453 119.672 33.1172 119.723 33.3711 119.723C33.5586 119.723 33.7246 119.709 33.8691 119.682V120.965C33.5371 121.066 33.1953 121.117 32.8438 121.117C31.6562 121.117 31.0508 120.518 31.0273 119.318V115.902H30.1016V114.66H31.0273V113.102H32.7207ZM36.5352 121H34.8359V114.66H36.5352V121ZM34.7363 113.02C34.7363 112.766 34.8203 112.557 34.9883 112.393C35.1602 112.229 35.3926 112.146 35.6855 112.146C35.9746 112.146 36.2051 112.229 36.377 112.393C36.5488 112.557 36.6348 112.766 36.6348 113.02C36.6348 113.277 36.5469 113.488 36.3711 113.652C36.1992 113.816 35.9707 113.898 35.6855 113.898C35.4004 113.898 35.1699 113.816 34.9941 113.652C34.8223 113.488 34.7363 113.277 34.7363 113.02ZM39.4941 114.66L39.5469 115.393C40 114.826 40.6074 114.543 41.3691 114.543C42.041 114.543 42.541 114.74 42.8691 115.135C43.1973 115.529 43.3652 116.119 43.373 116.904V121H41.6797V116.945C41.6797 116.586 41.6016 116.326 41.4453 116.166C41.2891 116.002 41.0293 115.92 40.666 115.92C40.1895 115.92 39.832 116.123 39.5938 116.529V121H37.9004V114.66H39.4941ZM44.416 117.783C44.416 116.811 44.6465 116.027 45.1074 115.434C45.5723 114.84 46.1973 114.543 46.9824 114.543C47.6777 114.543 48.2188 114.781 48.6055 115.258L48.6758 114.66H50.2109V120.789C50.2109 121.344 50.084 121.826 49.8301 122.236C49.5801 122.646 49.2266 122.959 48.7695 123.174C48.3125 123.389 47.7773 123.496 47.1641 123.496C46.6992 123.496 46.2461 123.402 45.8047 123.215C45.3633 123.031 45.0293 122.793 44.8027 122.5L45.5527 121.469C45.9746 121.941 46.4863 122.178 47.0879 122.178C47.5371 122.178 47.8867 122.057 48.1367 121.814C48.3867 121.576 48.5117 121.236 48.5117 120.795V120.455C48.1211 120.896 47.6074 121.117 46.9707 121.117C46.209 121.117 45.5918 120.82 45.1191 120.227C44.6504 119.629 44.416 118.838 44.416 117.854V117.783ZM46.1094 117.906C46.1094 118.48 46.2246 118.932 46.4551 119.26C46.6855 119.584 47.002 119.746 47.4043 119.746C47.9199 119.746 48.2891 119.553 48.5117 119.166V116.5C48.2852 116.113 47.9199 115.92 47.416 115.92C47.0098 115.92 46.6895 116.086 46.4551 116.418C46.2246 116.75 46.1094 117.246 46.1094 117.906ZM60.0195 118.697L60.8516 114.66H62.4863L60.8691 121H59.4512L58.25 117.01L57.0488 121H55.6367L54.0195 114.66H55.6543L56.4805 118.691L57.6406 114.66H58.8652L60.0195 118.697ZM66.248 121.117C65.3184 121.117 64.5605 120.832 63.9746 120.262C63.3926 119.691 63.1016 118.932 63.1016 117.982V117.818C63.1016 117.182 63.2246 116.613 63.4707 116.113C63.7168 115.609 64.0645 115.223 64.5137 114.953C64.9668 114.68 65.4824 114.543 66.0605 114.543C66.9277 114.543 67.6094 114.816 68.1055 115.363C68.6055 115.91 68.8555 116.686 68.8555 117.689V118.381H64.8184C64.873 118.795 65.0371 119.127 65.3105 119.377C65.5879 119.627 65.9375 119.752 66.3594 119.752C67.0117 119.752 67.5215 119.516 67.8887 119.043L68.7207 119.975C68.4668 120.334 68.123 120.615 67.6895 120.818C67.2559 121.018 66.7754 121.117 66.248 121.117ZM66.0547 115.914C65.7188 115.914 65.4453 116.027 65.2344 116.254C65.0273 116.48 64.8945 116.805 64.8359 117.227H67.1914V117.092C67.1836 116.717 67.082 116.428 66.8867 116.225C66.6914 116.018 66.4141 115.914 66.0547 115.914ZM73.4961 121C73.418 120.848 73.3613 120.658 73.3262 120.432C72.916 120.889 72.3828 121.117 71.7266 121.117C71.1055 121.117 70.5898 120.938 70.1797 120.578C69.7734 120.219 69.5703 119.766 69.5703 119.219C69.5703 118.547 69.8184 118.031 70.3145 117.672C70.8145 117.312 71.5352 117.131 72.4766 117.127H73.2559V116.764C73.2559 116.471 73.1797 116.236 73.0273 116.061C72.8789 115.885 72.6426 115.797 72.3184 115.797C72.0332 115.797 71.8086 115.865 71.6445 116.002C71.4844 116.139 71.4043 116.326 71.4043 116.564H69.7109C69.7109 116.197 69.8242 115.857 70.0508 115.545C70.2773 115.232 70.5977 114.988 71.0117 114.812C71.4258 114.633 71.8906 114.543 72.4062 114.543C73.1875 114.543 73.8066 114.74 74.2637 115.135C74.7246 115.525 74.9551 116.076 74.9551 116.787V119.535C74.959 120.137 75.043 120.592 75.207 120.9V121H73.4961ZM72.0957 119.822C72.3457 119.822 72.5762 119.768 72.7871 119.658C72.998 119.545 73.1543 119.395 73.2559 119.207V118.117H72.623C71.7754 118.117 71.3242 118.41 71.2695 118.996L71.2637 119.096C71.2637 119.307 71.3379 119.48 71.4863 119.617C71.6348 119.754 71.8379 119.822 72.0957 119.822ZM78.043 121H76.3438V112H78.043V121ZM81.4707 113.102V114.66H82.5547V115.902H81.4707V119.066C81.4707 119.301 81.5156 119.469 81.6055 119.57C81.6953 119.672 81.8672 119.723 82.1211 119.723C82.3086 119.723 82.4746 119.709 82.6191 119.682V120.965C82.2871 121.066 81.9453 121.117 81.5938 121.117C80.4062 121.117 79.8008 120.518 79.7773 119.318V115.902H78.8516V114.66H79.7773V113.102H81.4707ZM85.1504 115.352C85.5996 114.812 86.1641 114.543 86.8438 114.543C88.2188 114.543 88.916 115.342 88.9355 116.939V121H87.2422V116.986C87.2422 116.623 87.1641 116.355 87.0078 116.184C86.8516 116.008 86.5918 115.92 86.2285 115.92C85.7324 115.92 85.373 116.111 85.1504 116.494V121H83.457V112H85.1504V115.352ZM93.6641 121V115.902H92.7207V114.66H93.6641V114.121C93.6641 113.41 93.8672 112.859 94.2734 112.469C94.6836 112.074 95.2559 111.877 95.9902 111.877C96.2246 111.877 96.5117 111.916 96.8516 111.994L96.834 113.307C96.6934 113.271 96.5215 113.254 96.3184 113.254C95.6816 113.254 95.3633 113.553 95.3633 114.15V114.66H96.623V115.902H95.3633V121H93.6641ZM97.2383 117.771C97.2383 117.143 97.3594 116.582 97.6016 116.09C97.8438 115.598 98.1914 115.217 98.6445 114.947C99.1016 114.678 99.6309 114.543 100.232 114.543C101.088 114.543 101.785 114.805 102.324 115.328C102.867 115.852 103.17 116.562 103.232 117.461L103.244 117.895C103.244 118.867 102.973 119.648 102.43 120.238C101.887 120.824 101.158 121.117 100.244 121.117C99.3301 121.117 98.5996 120.824 98.0527 120.238C97.5098 119.652 97.2383 118.855 97.2383 117.848V117.771ZM98.9316 117.895C98.9316 118.496 99.0449 118.957 99.2715 119.277C99.498 119.594 99.8223 119.752 100.244 119.752C100.654 119.752 100.975 119.596 101.205 119.283C101.436 118.967 101.551 118.463 101.551 117.771C101.551 117.182 101.436 116.725 101.205 116.4C100.975 116.076 100.65 115.914 100.232 115.914C99.8184 115.914 99.498 116.076 99.2715 116.4C99.0449 116.721 98.9316 117.219 98.9316 117.895ZM107.85 116.248C107.619 116.217 107.416 116.201 107.24 116.201C106.6 116.201 106.18 116.418 105.98 116.852V121H104.287V114.66H105.887L105.934 115.416C106.273 114.834 106.744 114.543 107.346 114.543C107.533 114.543 107.709 114.568 107.873 114.619L107.85 116.248ZM114.025 118.604L115.197 114.66H117.014L114.465 121.984L114.324 122.318C113.945 123.146 113.32 123.561 112.449 123.561C112.203 123.561 111.953 123.523 111.699 123.449V122.166L111.957 122.172C112.277 122.172 112.516 122.123 112.672 122.025C112.832 121.928 112.957 121.766 113.047 121.539L113.246 121.018L111.025 114.66H112.848L114.025 118.604ZM117.324 117.771C117.324 117.143 117.445 116.582 117.688 116.09C117.93 115.598 118.277 115.217 118.73 114.947C119.188 114.678 119.717 114.543 120.318 114.543C121.174 114.543 121.871 114.805 122.41 115.328C122.953 115.852 123.256 116.562 123.318 117.461L123.33 117.895C123.33 118.867 123.059 119.648 122.516 120.238C121.973 120.824 121.244 121.117 120.33 121.117C119.416 121.117 118.686 120.824 118.139 120.238C117.596 119.652 117.324 118.855 117.324 117.848V117.771ZM119.018 117.895C119.018 118.496 119.131 118.957 119.357 119.277C119.584 119.594 119.908 119.752 120.33 119.752C120.74 119.752 121.061 119.596 121.291 119.283C121.521 118.967 121.637 118.463 121.637 117.771C121.637 117.182 121.521 116.725 121.291 116.4C121.061 116.076 120.736 115.914 120.318 115.914C119.904 115.914 119.584 116.076 119.357 116.4C119.131 116.721 119.018 117.219 119.018 117.895ZM128.17 120.355C127.752 120.863 127.174 121.117 126.436 121.117C125.756 121.117 125.236 120.922 124.877 120.531C124.521 120.141 124.34 119.568 124.332 118.814V114.66H126.025V118.756C126.025 119.416 126.326 119.746 126.928 119.746C127.502 119.746 127.896 119.547 128.111 119.148V114.66H129.811V121H128.217L128.17 120.355ZM131.176 120.168C131.176 119.898 131.266 119.68 131.445 119.512C131.629 119.344 131.857 119.26 132.131 119.26C132.408 119.26 132.637 119.344 132.816 119.512C133 119.68 133.092 119.898 133.092 120.168C133.092 120.434 133.002 120.65 132.822 120.818C132.643 120.982 132.412 121.064 132.131 121.064C131.854 121.064 131.625 120.982 131.445 120.818C131.266 120.65 131.176 120.434 131.176 120.168Z" fill="white"/>
</svg>
